<svg xmlns="http://www.w3.org/2000/svg" width="1920" height="3725" viewBox="0 0 1920 3725">
  <g id="bg" transform="translate(1839.505 4590.521)">
    <path id="패스_79" data-name="패스 79" d="M-1673.658-4115.5c142.162,120.1,254.034,196.77,486.083,332.428s340.044,266.152,397.042,395.145,157.492,440.978,319.484,509.975,289.313,86.6,485.139-40.561A597.308,597.308,0,0,0,80.5-2967.965V-4590.521h-1920v175.151S-1815.819-4235.6-1673.658-4115.5Z" fill="#fff"/>
    <path id="패스_80" data-name="패스 80" d="M-305.941-2710.508c-379.6-155.44-567.088,80.048-715.581,240.541s-187.233,219.416-312.6,414.192c-121.58,188.884-346.993,409.553-505.378,299.355v897.9H80.5V-2416.38C-12.391-2526.551-141.1-2643.009-305.941-2710.508Z" transform="translate(0 -7.001)" fill="#fff"/>
    <path id="패스_81" data-name="패스 81" d="M-1595.838-2254.216c190-33.763,258-69.1,422-232.43s222.658-313.333,225.662-483.333-67.081-378.031-251.7-469.682c-163.719-81.273-451.527-137.381-639.624,45.5V-2310.8C-1806.4-2279.789-1730.209-2230.339-1595.838-2254.216Z" transform="translate(0 -3.053)" fill="#fff"/>
  </g>
</svg>
