<svg xmlns="http://www.w3.org/2000/svg" width="245" height="20" viewBox="0 0 245 20">
  <g id="logo" transform="translate(-607.734 -792)">
    <path id="패스_67" data-name="패스 67" d="M196.449-31.931c1.945-.5,3.786-1.981,3.864-4.094a4.283,4.283,0,0,0-.294-1.722,3.962,3.962,0,0,0-.945-1.411,6.162,6.162,0,0,0-4.019-1.547c-.193-.012-.374-.039-.575-.039H182.942v.573l2.62.522v17.184l-2.62.522v.573H195.7a5.992,5.992,0,0,0,1.365-.174,5.624,5.624,0,0,0,.56-.159,5.633,5.633,0,0,0,.534-.214,5.41,5.41,0,0,0,2.964-3.218,5.057,5.057,0,0,0,.281-1.554,4.864,4.864,0,0,0-.565-2.329A5.9,5.9,0,0,0,196.449-31.931Zm-5.806-7.823h1.609a2.367,2.367,0,0,1,.752.135,2.3,2.3,0,0,1,.524.246,2.6,2.6,0,0,1,.465.369,4.365,4.365,0,0,1,1.135,3.058c.047,1.837-.915,3.609-2.416,3.861a2.111,2.111,0,0,1-.356.05h-1.713Zm5.321,13.308a7.081,7.081,0,0,1-.118,1,5.613,5.613,0,0,1-.223.83,2.979,2.979,0,0,1-2.777,2.258h-2.2v-8.5h1.791c.067,0,.126.017.191.021a3.4,3.4,0,0,1,.735.116,3.879,3.879,0,0,1,2.623,3.983C195.982-26.638,195.967-26.545,195.964-26.446Z" transform="translate(424.792 833.028)" fill="#2c7d74"/>
    <path id="패스_68" data-name="패스 68" d="M212.957-40.194l2.67.73V-27.05a3.822,3.822,0,0,1-3.913,3.99c-.132.007-.262.012-.389.012-2.615,0-4.383-1.538-4.383-4.5V-39.672l1.92-.522v-.573h-9.436v.573l.031.009,1.732.513v12.257a6.125,6.125,0,0,0,.4,2.272c1.157,2.935,4.683,3.776,8.438,3.776,4.407-.026,7.209-2.373,7.209-5.684V-39.488l1.84-.706v-.573h-6.119Z" transform="translate(427.325 833.024)" fill="#2c7d74"/>
    <path id="패스_69" data-name="패스 69" d="M229.476-22.185c-.121,0-.246,0-.371-.009-2.786-.133-4.557-2.125-5.382-4.9-.055-.186-.105-.376-.152-.569s-.087-.377-.125-.57a14.649,14.649,0,0,1-.251-2.1c-.283-5.711,2.127-9.438,5.521-9.438a4.885,4.885,0,0,1,3.061,1.042l2.537,3.817.318.48.323.485.062.094h.466v-5.709a8.416,8.416,0,0,0-1.553-.642c-.413-.13-.863-.244-1.331-.343-.153-.032-.318-.056-.478-.086-.323-.06-.647-.118-.984-.164-.2-.026-.4-.043-.6-.063-.312-.032-.624-.063-.94-.081-.212-.013-.425-.017-.636-.023-.185,0-.369-.02-.553-.02-.227,0-.455,0-.68.012-6.431.236-10.425,4.3-10.344,10.273a14.467,14.467,0,0,0,.221,2.413c.037.207.084.4.13.6s.1.4.16.6c1.229,4.069,4.691,5.987,10.349,6.092.115,0,.231,0,.345,0a15.374,15.374,0,0,0,5.336-.9,14.393,14.393,0,0,0,1.71-.751v-3.546h-.468C233.736-23.517,232.11-22.185,229.476-22.185Z" transform="translate(430.267 832.991)" fill="#2c7d74"/>
    <path id="패스_70" data-name="패스 70" d="M252.094-23.31l-6.875-9.768,5.81-6.364,1.065-.326,1.32-.4v-.573H247.45v.573l1.763.73c-2.282,2.869-5,5.5-7.7,8.294v-8.5l2.1-.522v-.573h-9.384v.573l1.552.33.911.193v17.184l-.755.16-1.709.362v.573h9.384v-.573l-2.1-.522v-8l6.379,9.1h6.3v-.573l-1.5-.522Z" transform="translate(432.946 833.028)" fill="#2c7d74"/>
    <path id="패스_71" data-name="패스 71" d="M265-22.36h-5.028v-8.5H266.4v-1.174h-6.427v-7.718H265l1.982,3.317.714,1.194h.466v-5.5H252.214v.573l1.32.258,1.349.264v17.184l-.573.112-1.731.338-.366.072v.573h15.944l.829-5.971h-.466Z" transform="translate(435.8 833.028)" fill="#2c7d74"/>
    <path id="패스_72" data-name="패스 72" d="M268.7-40.767h-.88l-.388,5.709h.986c.1-.077.182-.171.282-.252a6.925,6.925,0,0,0,2.518-4.44h2.956v17.262l-2.568.548v.573h10.422v-.573l-2.566-.548V-39.749h2.956a6.947,6.947,0,0,0,2.825,4.692h.984l-.39-5.709Z" transform="translate(438.223 833.024)" fill="#2c7d74"/>
    <path id="패스_73" data-name="패스 73" d="M292.055-40.767v.834l2.1.73v16.48l-1.892.73v.627h8.917v-.573l-2.2-.809v-8.031h5.938v-1.174h-5.938v-7.823h4.251l1.065,1.874.1.18,1.53,2.692h.467v-5.737H292.055Z" transform="translate(442.125 833.024)" fill="#232323"/>
    <path id="패스_74" data-name="패스 74" d="M320.841-26.115,318.7-22.361h-5.547V-39.65l2.671-.522v-.573H305.162v.573l2.1.377.807.145v17.184l-2.906.47v.627h16.7v-5.713h-.465Z" transform="translate(444.214 833.028)" fill="#232323"/>
    <path id="패스_75" data-name="패스 75" d="M337.4-39.006a9.84,9.84,0,0,0-7.084-1.961c-6.091.313-9.773,4.407-9.642,10.377,0,.222.022.432.035.645a10.606,10.606,0,0,0,1.646,5.476c1.6,2.329,4.323,3.524,8.17,3.476,6.039-.079,9.489-3.441,9.721-10.327a10.133,10.133,0,0,0-1.6-6.327A7.214,7.214,0,0,0,337.4-39.006Zm-6.849,16.473c-2.645,0-3.862-3.18-4.147-7.613-.338-5.084.466-9.178,4.019-9.283,2.98-.078,3.939,4.119,4.044,8.6C334.571-26.028,333.795-22.533,330.554-22.533Z" transform="translate(446.688 832.99)" fill="#232323"/>
    <path id="패스_76" data-name="패스 76" d="M358.933-40.767v.573l2.491.73-2.673,13.012h-.129l-4.045-14.315H351.52l-3.864,14.29h-.079L344.65-39.671l2.15-.522v-.573h-9.126v.573l.069.023,1.513.5,4.952,18.28h3.6l3.732-13.9,3.813,13.9h3.731l3.486-16.329.377-1.767,1.684-.705v-.573h-5.7Z" transform="translate(449.419 833.024)" fill="#232323"/>
    <path id="패스_77" data-name="패스 77" d="M374.289-22.36h-5.03v-8.5h6.429v-1.174h-6.429v-7.718h5.03l2.7,4.511h.466v-5.5H361.507v.573l2.35.46.32.062v17.184l-2.67.522v.573h15.944l.42-3.022.41-2.949h-.466Z" transform="translate(453.264 833.028)" fill="#232323"/>
    <path id="패스_78" data-name="패스 78" d="M395.489-22.723l-2.9-6.493a4.229,4.229,0,0,0-2.852-2.346c3.19-.548,4.745-2.242,4.745-4.537,0-3.051-2.514-4.667-7-4.667H376.952v.834l1.011.352,1.091.379v16.479l-.93.385-.963.4v.573h8.918v-.573l-2.153-.784v-7.744h1.659c.909,0,1.478.782,1.841,1.748l3.267,7.354h6.4v-.573Zm-10.032-9.1h-1.531v-7.823a7.558,7.558,0,0,1,1.894-.1,3.632,3.632,0,0,1,3.447,3.885C389.268-33.439,387.945-31.823,385.457-31.823Z" transform="translate(455.638 833.024)" fill="#232323"/>
  </g>
</svg>
