<svg xmlns="http://www.w3.org/2000/svg" width="48" height="48" viewBox="0 0 48 48">
  <g id="그룹_227" data-name="그룹 227" transform="translate(78.417 -30.211)">
    <path id="패스_335" data-name="패스 335" d="M-59.4,58.562a9.153,9.153,0,0,1-4.178-7.684,9.167,9.167,0,0,1,9.166-9.167,9.167,9.167,0,0,1,9.167,9.167,9.153,9.153,0,0,1-4.178,7.684A19.011,19.011,0,0,1-36.61,70.3a23.914,23.914,0,0,0,6.193-16.09,24,24,0,0,0-24-24,24,24,0,0,0-24,24A23.91,23.91,0,0,0-72.223,70.3,19.011,19.011,0,0,1-59.4,58.562Z" fill="#32a797"/>
    <path id="패스_336" data-name="패스 336" d="M-49.428,58.562a9.153,9.153,0,0,0,4.178-7.684,9.167,9.167,0,0,0-9.167-9.167,9.167,9.167,0,0,0-9.166,9.167A9.153,9.153,0,0,0-59.4,58.562,19.011,19.011,0,0,0-72.223,70.3a23.938,23.938,0,0,0,17.806,7.91A23.939,23.939,0,0,0-36.61,70.3,19.011,19.011,0,0,0-49.428,58.562Z" fill="#d0ffe6"/>
  </g>
</svg>
