<svg id="그룹_226" data-name="그룹 226" xmlns="http://www.w3.org/2000/svg" width="96" height="96" viewBox="0 0 96 96">
  <path id="패스_335" data-name="패스 335" d="M-40.393,86.913a18.306,18.306,0,0,1-8.356-15.368A18.333,18.333,0,0,1-30.417,53.211,18.333,18.333,0,0,1-12.083,71.545a18.306,18.306,0,0,1-8.356,15.368A38.023,38.023,0,0,1,5.2,110.391a47.828,47.828,0,0,0,12.386-32.18,48,48,0,0,0-48-48,48,48,0,0,0-48,48,47.82,47.82,0,0,0,12.388,32.18A38.023,38.023,0,0,1-40.393,86.913Z" transform="translate(78.417 -30.211)" fill="#32a797"/>
  <path id="패스_336" data-name="패스 336" d="M-26.633,75.413a18.306,18.306,0,0,0,8.356-15.368A18.333,18.333,0,0,0-36.611,41.711,18.333,18.333,0,0,0-54.943,60.045a18.306,18.306,0,0,0,8.356,15.368A38.023,38.023,0,0,0-72.223,98.891a47.877,47.877,0,0,0,35.612,15.82A47.878,47.878,0,0,0-1,98.891,38.023,38.023,0,0,0-26.633,75.413Z" transform="translate(84.611 -18.711)" fill="#d0ffe6"/>
</svg>
